<svg width="38" height="38" viewBox="0 0 38 38" fill="none" xmlns="http://www.w3.org/2000/svg">
<path d="M11.9952 37.2903C10.977 37.2903 10.1056 36.9282 9.38111 36.2039C8.65538 35.4784 8.29251 34.6067 8.29251 33.5887C8.29251 32.5708 8.65538 31.699 9.38111 30.9735C10.1056 30.2492 10.977 29.8871 11.9952 29.8871C13.0135 29.8871 13.8848 30.2492 14.6093 30.9735C15.3351 31.699 15.6979 32.5708 15.6979 33.5887C15.6979 34.6067 15.3351 35.4784 14.6093 36.2039C13.8848 36.9282 13.0135 37.2903 11.9952 37.2903ZM30.5088 37.2903C29.4906 37.2903 28.6192 36.9282 27.8947 36.2039C27.169 35.4784 26.8061 34.6067 26.8061 33.5887C26.8061 32.5708 27.169 31.699 27.8947 30.9735C28.6192 30.2492 29.4906 29.8871 30.5088 29.8871C31.5271 29.8871 32.399 30.2492 33.1248 30.9735C33.8493 31.699 34.2115 32.5708 34.2115 33.5887C34.2115 34.6067 33.8493 35.4784 33.1248 36.2039C32.399 36.9282 31.5271 37.2903 30.5088 37.2903ZM10.4216 7.67743L14.8648 16.9315H27.8243L32.9156 7.67743H10.4216ZM11.9952 28.0363C10.6067 28.0363 9.55761 27.4268 8.84792 26.2077C8.13824 24.9899 8.10738 23.7794 8.75535 22.5764L11.2547 18.0419L4.5898 3.97581H2.69216C2.16761 3.97581 1.73562 3.79814 1.39621 3.44278C1.05679 3.08866 0.887085 2.6494 0.887085 2.12501C0.887085 1.60061 1.06482 1.16074 1.42028 0.805382C1.7745 0.451261 2.21389 0.2742 2.73844 0.2742H5.7469C6.08631 0.2742 6.4103 0.366741 6.71886 0.551822C7.02742 0.736902 7.25884 0.9991 7.41312 1.33841L8.66279 3.97581H35.9703C36.8034 3.97581 37.3743 4.28428 37.6828 4.90122C37.9914 5.51815 37.9759 6.16593 37.6365 6.84456L31.0642 18.6897C30.7248 19.3067 30.2774 19.7848 29.722 20.1241C29.1666 20.4634 28.534 20.6331 27.8243 20.6331H14.0317L11.9952 24.3347H32.4064C32.931 24.3347 33.363 24.5117 33.7024 24.8659C34.0418 25.2212 34.2115 25.6611 34.2115 26.1855C34.2115 26.7099 34.0338 27.1491 33.6783 27.5033C33.3241 27.8586 32.8847 28.0363 32.3602 28.0363H11.9952ZM14.8648 16.9315H27.8243H14.8648Z" fill="#333333"/>
</svg>
