<svg width="90" height="89" viewBox="0 0 90 89" fill="none" xmlns="http://www.w3.org/2000/svg">
<path d="M33.9584 32.6855V56.3146C33.9584 58.0077 34.7313 59.2959 36.2771 60.1792C37.8229 61.0626 39.332 60.989 40.8042 59.9584L59.1334 48.2542C60.532 47.3709 61.2313 46.1195 61.2313 44.5001C61.2313 42.8806 60.532 41.6292 59.1334 40.7459L40.8042 29.0417C39.332 28.0112 37.8229 27.9376 36.2771 28.8209C34.7313 29.7042 33.9584 30.9924 33.9584 32.6855ZM45 88.6667C38.8903 88.6667 33.1486 87.5066 27.775 85.1864C22.4014 82.8691 17.7271 79.723 13.7521 75.748C9.7771 71.773 6.63096 67.0987 4.31368 61.7251C1.99346 56.3514 0.833344 50.6098 0.833344 44.5001C0.833344 38.3903 1.99346 32.6487 4.31368 27.2751C6.63096 21.9014 9.7771 17.2271 13.7521 13.2521C17.7271 9.27713 22.4014 6.12952 27.775 3.80929C33.1486 1.49201 38.8903 0.333374 45 0.333374C51.1098 0.333374 56.8514 1.49201 62.225 3.80929C67.5986 6.12952 72.273 9.27713 76.248 13.2521C80.223 17.2271 83.3691 21.9014 85.6864 27.2751C88.0066 32.6487 89.1667 38.3903 89.1667 44.5001C89.1667 50.6098 88.0066 56.3514 85.6864 61.7251C83.3691 67.0987 80.223 71.773 76.248 75.748C72.273 79.723 67.5986 82.8691 62.225 85.1864C56.8514 87.5066 51.1098 88.6667 45 88.6667Z" fill="#484848"/>
</svg>
