<svg width="42" height="34" viewBox="0 0 42 34" fill="none" xmlns="http://www.w3.org/2000/svg">
<path d="M41.92 4C40.38 4.7 38.72 5.16 37 5.38C38.76 4.32 40.12 2.64 40.76 0.62C39.1 1.62 37.26 2.32 35.32 2.72C33.74 1 31.52 0 29 0C24.3 0 20.46 3.84 20.46 8.58C20.46 9.26 20.54 9.92 20.68 10.54C13.56 10.18 7.22002 6.76 3.00002 1.58C2.26002 2.84 1.84002 4.32 1.84002 5.88C1.84002 8.86 3.34002 11.5 5.66002 13C4.24002 13 2.92002 12.6 1.76002 12V12.06C1.76002 16.22 4.72002 19.7 8.64002 20.48C7.38147 20.8244 6.06021 20.8723 4.78002 20.62C5.32323 22.325 6.38709 23.8168 7.82205 24.8859C9.25701 25.9549 10.9909 26.5474 12.78 26.58C9.74728 28.9809 5.98801 30.2786 2.12002 30.26C1.44002 30.26 0.760017 30.22 0.0800171 30.14C3.88002 32.58 8.40002 34 13.24 34C29 34 37.66 20.92 37.66 9.58C37.66 9.2 37.66 8.84 37.64 8.46C39.32 7.26 40.76 5.74 41.92 4Z" fill="#585858"/>
</svg>
